<svg width="91" height="91" viewBox="0 0 91 91" fill="none" xmlns="http://www.w3.org/2000/svg"><path fill-rule="evenodd" clip-rule="evenodd" d="M26.793.397C31.632.174 33.175.125 45.5.125c12.325 0 13.868.054 18.703.272 4.834.219 8.134.99 11.022 2.108a22.323 22.323 0 0 1 8.035 5.239 22.164 22.164 0 0 1 5.23 8.031c1.123 2.888 1.89 6.188 2.113 11.014.223 4.847.272 6.39.272 18.711 0 12.325-.054 13.868-.272 18.707-.219 4.826-.99 8.126-2.112 11.014a22.258 22.258 0 0 1-5.23 8.04 22.248 22.248 0 0 1-8.036 5.23c-2.888 1.122-6.188 1.889-11.014 2.112-4.843.223-6.386.272-18.711.272s-13.868-.054-18.707-.272c-4.826-.219-8.126-.99-11.014-2.112a22.261 22.261 0 0 1-8.04-5.23 22.241 22.241 0 0 1-5.234-8.036C1.387 72.337.62 69.037.397 64.21.174 59.364.125 57.821.125 45.5c0-12.325.054-13.868.272-18.703.219-4.834.99-8.134 2.108-11.022A22.259 22.259 0 0 1 7.744 7.74a22.242 22.242 0 0 1 8.031-5.235C18.663 1.387 21.963.62 26.79.397h.004zm37.043 8.168C59.05 8.346 57.616 8.3 45.5 8.3c-12.115 0-13.55.045-18.336.264-4.426.202-6.827.94-8.427 1.563-2.116.825-3.63 1.803-5.218 3.39a14.074 14.074 0 0 0-3.39 5.219c-.624 1.6-1.362 4.001-1.564 8.427C8.346 31.95 8.3 33.384 8.3 45.5c0 12.115.045 13.55.264 18.336.202 4.426.94 6.826 1.563 8.427a14.086 14.086 0 0 0 3.39 5.218 14.086 14.086 0 0 0 5.219 3.39c1.6.624 4.001 1.362 8.427 1.564 4.785.219 6.217.264 18.336.264 12.12 0 13.55-.045 18.336-.264 4.426-.202 6.826-.94 8.427-1.563 2.116-.825 3.63-1.803 5.218-3.39a14.086 14.086 0 0 0 3.39-5.219c.624-1.6 1.362-4.001 1.564-8.427.219-4.785.264-6.22.264-18.336 0-12.115-.045-13.55-.264-18.336-.202-4.426-.94-6.827-1.563-8.427-.825-2.116-1.803-3.63-3.39-5.218a14.079 14.079 0 0 0-5.219-3.39c-1.6-.624-4.001-1.362-8.427-1.564zM39.704 59.488a15.134 15.134 0 0 0 16.5-24.692 15.139 15.139 0 1 0-16.5 24.692zm-10.696-30.48a23.325 23.325 0 0 1 38.04 7.567 23.323 23.323 0 1 1-38.04-7.567zm44.988-3.357a5.516 5.516 0 1 0-7.57-8.025 5.516 5.516 0 0 0 7.57 8.024z" fill="#005BAE"/></svg>