<svg width="88" height="89" viewBox="0 0 88 89" fill="none" xmlns="http://www.w3.org/2000/svg"><path fill-rule="evenodd" clip-rule="evenodd" d="M75.177 12.934C66.906 4.598 55.905.004 44.185 0 20.035 0 .38 19.783.372 44.099A44.248 44.248 0 0 0 6.22 66.147L.004 89l23.226-6.133a43.555 43.555 0 0 0 20.937 5.368h.018c24.147 0 43.803-19.785 43.813-44.101.004-11.784-4.549-22.864-12.82-31.2zM44.185 80.787h-.015a36.179 36.179 0 0 1-18.534-5.11l-1.33-.794-13.782 3.64 3.679-13.527-.866-1.387a36.747 36.747 0 0 1-5.568-19.508C7.777 23.892 24.113 7.449 44.2 7.449c9.727.004 18.87 3.822 25.746 10.75 6.875 6.929 10.66 16.139 10.656 25.933-.009 20.212-16.345 36.656-36.416 36.656zM64.16 53.334c-1.095-.552-6.477-3.218-7.48-3.585-1.004-.368-1.734-.552-2.464.551-.73 1.103-2.827 3.586-3.466 4.32-.639.736-1.277.828-2.372.277-1.095-.552-4.622-1.715-8.803-5.47-3.255-2.921-5.452-6.53-6.09-7.633-.64-1.103-.069-1.7.48-2.25.492-.493 1.094-1.286 1.642-1.93.547-.643.73-1.103 1.094-1.838.365-.736.183-1.38-.091-1.93-.274-.552-2.463-5.976-3.375-8.183-.889-2.148-1.791-1.858-2.463-1.891a43.651 43.651 0 0 0-2.098-.04c-.73 0-1.916.277-2.92 1.38-1.003 1.103-3.831 3.769-3.831 9.193 0 5.423 3.923 10.663 4.47 11.399.547.735 7.72 11.866 18.7 16.639a62.751 62.751 0 0 0 6.242 2.321c2.622.839 5.009.72 6.895.437 2.103-.316 6.477-2.666 7.39-5.24.912-2.574.912-4.78.638-5.24-.274-.46-1.004-.736-2.098-1.287" fill="#005BAE"/></svg>